<?xml version="1.0" encoding="UTF-8"?><svg id="a" xmlns="http://www.w3.org/2000/svg" viewBox="0 0 1401.35 214"><defs><style>.b{fill:#fff;}</style></defs><g><path class="b" d="M307.36,139.84c-10.3,2.48-26.23,3.76-34.45,3.76-18.12,0-35.94-.4-35.94-21.88,0-7.72,3.86-43.06,25.94-49.8,8.81-2.77,17.32-3.17,24.95-3.17,12.67,0,25.24,1.58,37.52,4.36l-5.74,20.79c-6.83-.79-13.96-1.78-20.99-1.78-5.54,0-11.78,0-17.03,1.29-9.11,2.48-13.17,14.16-13.17,23.27s5.54,9.11,12.67,9.01l5.15-18.41h30.1l-9.01,32.57Z"/><path class="b" d="M331.52,70.84h72.96l-5.84,22.37h-42.17l-1.98,7.92h42.17l-3.96,15.25h-42.17l-1.68,6.34h42.17l-4.85,18.81h-72.86l18.22-70.69Z"/><path class="b" d="M411.21,70.84h34.75l6.34,40.99h.2l10.69-40.99h30.49l-19.01,70.69h-33.66l-8.32-36.83h-.2l-9.8,36.83h-30.49l19.01-70.69Z"/><path class="b" d="M500.11,70.84h72.96l-5.84,22.37h-42.17l-1.98,7.92h42.17l-3.96,15.25h-42.17l-1.68,6.34h42.17l-4.85,18.81h-72.86l18.22-70.69Z"/><path class="b" d="M579.3,70.84h58.41c13.46,0,16.33,5.74,16.33,15.74,0,17.82-9.9,25.94-22.67,25.94h-5.35l20.49,29.01h-35.34l-14.65-24.55-6.34,24.55h-30.19l19.3-70.69Zm20.79,34.45h13.56c6.93,0,9.9-5.15,9.9-9.7,0-3.37-2.38-4.95-6.53-4.95h-13.17l-3.76,14.65Z"/><path class="b" d="M687.41,70.84h52.96v70.69h-30.49v-10.3h-24.95l-6.14,10.3h-33.86l42.47-70.69Zm22.47,17.92h-.2l-15.64,25.44h15.84v-25.44Z"/><path class="b" d="M760.77,70.84h30.59l-11.98,46.43h30.69l-6.34,24.26h-61.18l18.22-70.69Z"/><path class="b" d="M879.27,70.84h52.96v70.69h-30.49v-10.3h-24.95l-6.14,10.3h-33.86l42.47-70.69Zm22.47,17.92h-.2l-15.64,25.44h15.84v-25.44Z"/><path class="b" d="M955.1,94.2h-20l6.34-23.36h70.69l-6.34,23.36h-19.9l-12.28,47.32h-30.79l12.28-47.32Z"/><path class="b" d="M1014.2,84.1c8.51-13.56,23.26-15.34,41.28-15.34s38.41,.69,38.41,22.77c0,10.2-4.26,26.93-11.98,38.91-7.72,12.28-26.33,13.17-40.49,13.17-21.98,0-38.41-.69-38.41-22.77,0-10.2,4.16-25.44,11.19-36.73Zm25.24,15.05c-2.67,5.05-4.95,13.07-4.95,16.63,0,7.33,4.95,9.01,9.01,9.01,7.23,0,10.2-1.29,13.17-6.73,1.09-1.98,4.85-9.6,4.85-17.62,0-5.15-2.77-8.32-9.6-8.32-4.85,0-8.91,.3-12.47,7.03Z"/><path class="b" d="M1105.48,70.84h41.88v38.02h.2l20.89-38.02h41.38l-19.21,70.69h-29.6l10-37.42h-.2l-23.36,37.42h-17.62l-2.77-38.61h-.2l-10.49,38.61h-29.11l18.22-70.69Z"/><path class="b" d="M1216.16,70.84h30.29l-19.21,70.69h-29.8l18.71-70.69Z"/><path class="b" d="M1303.44,140.04c-13.37,2.97-27.42,3.56-34.06,3.56-21.29,0-30.99-4.16-30.99-20.49,0-10.3,5.54-34.55,14.65-44.35,8.12-8.51,20.89-10,32.08-10,12.18,0,24.25,1.58,36.23,4.06l-6.24,23.36c-6.14-.89-11.38-1.39-17.13-1.39-8.81,0-16.83,.69-22.08,5.64-2.57,2.47-5.15,7.33-5.15,13.36,0,7.03,4.75,9.11,15.44,9.11,7.62,0,15.05-1.78,22.57-3.07l-5.35,20.2Z"/><path class="b" d="M1312.25,122.51c11.29,1.39,22.47,2.28,33.86,2.28,3.27,0,10.2,0,10.2-4.65,0-3.46-1.78-4.16-19.5-4.16-9.11,0-19.11-3.07-19.11-14.16,0-15.25,7.92-27.62,19.8-30.99,6.63-1.88,16.24-2.08,23.56-2.08,9.9,0,25.84,.5,40.29,2.67l-6.24,21.88c-9.6-1.19-19.11-2.18-28.81-2.18-11.78,0-14.55,1.68-14.55,5.05,0,2.87,1.98,3.66,17.52,3.66,11.29,0,21.19,.5,21.19,15.35,0,5.54-2.57,13.27-4.65,16.63-6.14,9.9-16.04,11.78-35.54,11.78-15.84,0-29.3-.89-42.47-3.27l4.45-17.82Z"/></g><g><path class="b" d="M75.17,52.78L106.36,.06l31.08,52.72-31.08,53.53-31.19-53.53Z"/><path class="b" d="M75.17,52.73L106.36,0l31.08,52.73-31.08,53.53-31.19-53.53Z"/><path class="b" d="M106.36,106.45l31.08,53.53-31.08,52.73-31.19-52.73,31.19-53.53Z"/><path class="b" d="M52.73,137.55L0,106.37l52.73-31.08,53.52,31.07-53.52,31.19Z"/><path class="b" d="M106.46,106.36l53.53-31.07,52.72,31.08-52.72,31.19-53.53-31.19Z"/></g><g><path class="b" d="M625.62,163.29h36.92v49.27h-21.25v-7.18h-17.39l-4.28,7.18h-23.6l29.6-49.27Zm15.66,12.49h-.14l-10.9,17.73h11.04v-17.73Z"/><path class="b" d="M678.3,163.29h50.85l-4.07,15.59h-29.4l-1.38,5.52h29.39l-2.76,10.63h-29.39l-1.17,4.42h29.4l-3.38,13.11h-50.78l12.7-49.27Z"/><path class="b" d="M736.33,163.29h40.71c9.38,0,11.38,4,11.38,10.97,0,12.42-6.9,18.08-15.8,18.08h-3.73l14.28,20.22h-24.63l-10.21-17.11-4.42,17.11h-21.05l13.46-49.27Zm14.49,24.01h9.45c4.83,0,6.9-3.59,6.9-6.76,0-2.35-1.66-3.45-4.55-3.45h-9.18l-2.62,10.21Z"/><path class="b" d="M796.78,172.54c5.93-9.45,16.21-10.69,28.77-10.69s26.77,.48,26.77,15.87c0,7.11-2.97,18.77-8.35,27.12-5.38,8.56-18.35,9.18-28.22,9.18-15.32,0-26.77-.48-26.77-15.87,0-7.11,2.9-17.73,7.8-25.6Zm17.59,10.49c-1.86,3.52-3.45,9.11-3.45,11.59,0,5.11,3.45,6.28,6.28,6.28,5.04,0,7.11-.9,9.18-4.69,.76-1.38,3.38-6.69,3.38-12.28,0-3.59-1.93-5.8-6.69-5.8-3.38,0-6.21,.21-8.69,4.9Z"/><path class="b" d="M868.49,179.57h-13.94l4.42-16.28h49.27l-4.42,16.28h-13.87l-8.56,32.98h-21.46l8.56-32.98Z"/><path class="b" d="M911.96,163.29h50.85l-4.07,15.59h-29.39l-1.38,5.52h29.39l-2.76,10.63h-29.39l-1.17,4.42h29.39l-3.38,13.11h-50.78l12.7-49.27Z"/><path class="b" d="M1005.51,211.52c-9.32,2.07-19.11,2.48-23.74,2.48-14.83,0-21.6-2.9-21.6-14.28,0-7.18,3.86-24.08,10.21-30.91,5.66-5.93,14.56-6.97,22.36-6.97,8.49,0,16.9,1.1,25.25,2.83l-4.35,16.28c-4.28-.62-7.93-.97-11.94-.97-6.14,0-11.73,.48-15.39,3.93-1.79,1.72-3.59,5.11-3.59,9.31,0,4.9,3.31,6.35,10.76,6.35,5.31,0,10.49-1.24,15.73-2.14l-3.73,14.08Z"/></g></svg>